<?xml version="1.0" encoding="UTF-8"?>
<svg width="26px" height="21px" viewBox="0 0 26 21" version="1.1" xmlns="http://www.w3.org/2000/svg" xmlns:xlink="http://www.w3.org/1999/xlink">
    <title>Shape</title>
    <g id="ThorWallet---blue" stroke="none" stroke-width="1" fill="none" fill-rule="evenodd">
        <g id="Artboard" transform="translate(-339.000000, -65.000000)" fill="#FFFFFF" fill-rule="nonzero">
            <path d="M364.651786,67.0892857 L339.348214,67.0892857 C339.155901,67.0892857 339,66.9333849 339,66.7410714 L339,65.3482143 C339,65.1559008 339.155901,65 339.348214,65 L364.651786,65 C364.844099,65 365,65.1559008 365,65.3482143 L365,66.7410714 C365,66.9333849 364.844099,67.0892857 364.651786,67.0892857 Z M364.705357,76.2857143 L343.294643,76.2857143 C343.131916,76.2857143 343,76.1364759 343,75.952381 L343,74.6190476 C343,74.4349527 343.131916,74.2857143 343.294643,74.2857143 L364.705357,74.2857143 C364.868084,74.2857143 365,74.4349527 365,74.6190476 L365,75.952381 C365,76.1364759 364.868084,76.2857143 364.705357,76.2857143 Z M364.651786,85.6607143 L339.348214,85.6607143 C339.155901,85.6607143 339,85.5048134 339,85.3125 L339,83.9196429 C339,83.7273294 339.155901,83.5714286 339.348214,83.5714286 L364.651786,83.5714286 C364.844099,83.5714286 365,83.7273294 365,83.9196429 L365,85.3125 C365,85.5048134 364.844099,85.6607143 364.651786,85.6607143 Z" id="Shape"></path>
        </g>
    </g>
</svg>